<?xml version="1.0" standalone="no"?>
<!DOCTYPE svg PUBLIC "-//W3C//DTD SVG 20010904//EN"
 "http://www.w3.org/TR/2001/REC-SVG-20010904/DTD/svg10.dtd">
<svg version="1.0" xmlns="http://www.w3.org/2000/svg"
 width="192.000000pt" height="192.000000pt" viewBox="0 0 192.000000 192.000000"
 preserveAspectRatio="xMidYMid meet">

<g transform="translate(0.000000,192.000000) scale(0.100000,-0.100000)"
fill="#000000" stroke="none">
<path d="M0 960 l0 -960 960 0 960 0 0 960 0 960 -960 0 -960 0 0 -960z m1214
424 c13 -5 14 -18 10 -67 -13 -154 -15 -166 -30 -160 -8 3 -14 18 -14 35 0 26
-3 29 -22 22 -32 -9 -44 -20 -58 -55 -12 -29 -39 -36 -31 -8 2 8 4 26 4 42 0
15 6 27 13 27 7 0 16 10 20 22 11 36 75 148 84 148 5 0 15 -3 24 -6z m-154
-39 c0 -16 -64 -222 -71 -230 -15 -16 -29 9 -41 73 -6 35 -14 59 -18 55 -3 -5
-17 -43 -30 -85 -22 -73 -32 -89 -43 -70 -10 15 -51 212 -45 217 9 9 38 -6 38
-21 0 -7 5 -37 11 -66 l12 -53 26 80 c33 100 51 105 67 17 11 -60 24 -93 24
-60 0 37 41 148 55 148 8 0 15 -2 15 -5z m-282 -67 c32 -32 -6 -126 -58 -143
-14 -5 -20 -15 -20 -38 0 -36 -14 -65 -24 -49 -3 6 -5 53 -5 105 1 52 -1 99
-5 105 -14 23 90 42 112 20z m761 -108 c9 0 3 -267 -6 -290 -4 -8 -7 -18 -7
-22 -1 -5 -4 -8 -8 -8 -5 0 -15 0 -23 0 -8 0 -35 35 -60 77 -25 43 -45 73 -46
68 -1 -12 -4 -63 -7 -120 -1 -22 -6 -47 -12 -55 -8 -12 -11 -12 -28 3 -17 16
-18 29 -14 150 4 134 11 159 41 154 28 -4 38 -15 72 -75 l34 -57 5 80 c6 87
14 109 37 101 8 -3 18 -6 22 -6z m-264 -185 c-6 -120 -18 -185 -34 -185 -4 0
-13 20 -20 45 -9 32 -11 75 -6 160 l7 115 30 -2 30 -2 -7 -131z m-80 85 c9
-15 -14 -40 -35 -40 -19 0 -29 -39 -31 -125 -1 -54 -25 -163 -29 -130 -1 16
-4 14 -15 -10 l-13 -30 -7 39 c-4 21 -5 80 -3 130 l5 92 -33 0 c-30 -1 -33 -4
-39 -41 -3 -23 -17 -52 -32 -67 -25 -27 -26 -28 -9 -47 10 -11 31 -23 48 -26
24 -6 29 -11 26 -33 -3 -23 -8 -27 -41 -30 -35 -3 -43 1 -78 39 l-39 42 0 -30
c0 -51 -12 -93 -26 -93 -8 0 -14 7 -14 16 0 9 -5 12 -11 8 -14 -8 -4 138 11
167 6 9 7 26 3 36 -6 17 -5 17 13 -1 17 -18 19 -18 22 -3 2 10 7 15 12 12 4
-3 6 -15 3 -28 -4 -19 -1 -18 27 11 36 38 35 53 -3 63 -15 4 -25 4 -22 -1 3
-4 -3 -10 -13 -13 -9 -2 -26 -8 -37 -12 -16 -5 -17 -5 -5 4 12 9 11 11 -8 11
-33 0 -25 31 13 50 40 20 130 17 155 -5 18 -16 18 -16 13 3 -4 18 5 24 74 45
76 25 101 24 118 -3z m-448 -89 c7 -9 13 -28 13 -43 0 -15 4 -38 10 -52 16
-44 23 -149 11 -180 -9 -23 -14 -26 -26 -16 -8 7 -15 24 -15 39 0 14 -4 32 -9
39 -13 21 -60 -6 -67 -37 -16 -72 -56 -95 -62 -35 -3 30 56 254 78 293 11 22
47 17 67 -8z m-167 -166 c0 -110 -3 -145 -15 -161 -15 -19 -15 -19 -30 0 -10
14 -15 44 -16 95 0 62 -2 71 -10 51 -45 -110 -63 -121 -99 -58 l-25 43 -6 -79
c-5 -53 -12 -83 -23 -95 -16 -15 -18 -15 -32 4 -8 11 -12 32 -9 50 2 16 7 70
11 119 7 109 19 139 48 130 30 -9 42 -21 56 -54 7 -17 15 -30 19 -30 3 0 14
21 25 46 23 56 52 84 83 82 23 -2 23 -3 23 -143z m1144 -27 c54 -18 55 -33 3
-46 l-44 -12 7 -45 c4 -25 4 -48 0 -50 -4 -3 -20 12 -36 33 -15 20 -29 39 -30
41 -2 2 -24 -7 -49 -19 -25 -12 -48 -20 -51 -18 -2 3 11 22 30 43 32 35 34 40
21 59 -26 36 -19 48 21 40 30 -5 38 -3 52 17 l17 24 9 -27 c7 -19 21 -31 50
-40z m-437 -73 c0 -8 -1 -15 -1 -15 -1 0 -19 -7 -41 -14 -37 -13 -30 -14 88
-9 90 4 127 3 127 -5 0 -20 -44 -40 -90 -41 -25 0 -40 3 -33 7 8 5 9 13 3 22
-6 9 -10 10 -10 3 0 -7 -24 -14 -57 -18 -32 -4 -75 -11 -95 -15 -27 -5 -38 -4
-38 4 0 7 -3 7 -8 1 -4 -6 -31 -19 -60 -29 -43 -15 -58 -16 -78 -7 -30 13 -45
14 -24 1 19 -12 -19 -27 -92 -36 -29 -3 -85 -17 -124 -30 -67 -23 -104 -24
-104 -3 0 13 44 33 154 69 67 22 94 35 85 41 -11 7 -9 9 6 10 19 0 19 1 1 8
-15 6 -3 11 44 21 50 11 65 11 68 1 3 -9 7 -8 16 3 7 9 48 20 106 29 130 20
157 20 157 2z m-417 -65 c0 -17 -52 -32 -87 -25 -24 4 -33 2 -33 -8 0 -7 -7
-14 -15 -14 -8 0 -15 6 -15 13 0 6 26 19 58 27 70 18 92 20 92 7z m-174 -45
c-8 -9 -22 -12 -32 -8 -16 6 -16 7 2 14 34 13 47 11 30 -6z m-96 -30 c-7 -8
-23 -15 -36 -15 -12 0 -30 -7 -39 -16 -9 -9 -19 -14 -22 -10 -10 10 9 24 52
40 52 19 60 19 45 1z"/>
<path d="M1163 1286 c-15 -31 -19 -46 -10 -46 27 0 38 18 35 55 l-3 38 -22
-47z"/>
<path d="M710 1213 l0 -46 25 23 c14 13 25 34 25 47 0 18 -5 23 -25 23 -23 0
-25 -4 -25 -47z"/>
<path d="M700 871 c0 -5 -3 -17 -6 -25 -5 -12 -2 -15 10 -10 18 7 21 29 6 39
-5 3 -10 2 -10 -4z"/>
<path d="M1627 773 c-14 -13 -6 -33 13 -33 13 0 20 7 20 20 0 19 -20 27 -33
13z"/>
<path d="M1680 765 c0 -8 8 -11 20 -8 11 3 20 7 20 8 0 1 -9 5 -20 8 -12 3
-20 0 -20 -8z"/>
<path d="M1585 730 c-3 -5 -1 -10 4 -10 6 0 11 5 11 10 0 6 -2 10 -4 10 -3 0
-8 -4 -11 -10z"/>
<path d="M920 666 c0 -2 9 -6 20 -9 11 -3 18 -1 14 4 -5 9 -34 13 -34 5z"/>
<path d="M1058 623 c7 -3 16 -2 19 1 4 3 -2 6 -13 5 -11 0 -14 -3 -6 -6z"/>
</g>
</svg>
